<svg width="31.88" height="32" viewBox="0 0 31.88 32" fill="none" xmlns="http://www.w3.org/2000/svg">
<mask id="mask0_131_571" style="mask-type:alpha" maskUnits="userSpaceOnUse" x="0" y="0" width="31.88" height="32">
<rect width="31.88" height="32" fill="#fff"/>
</mask>
<g mask="url(#mask0_131_571)">
<path d="M192.928 1.79115e-05C184.692 -0.00779594 176.663 2.54115 169.975 7.28636C163.287 12.0316 158.279 18.7329 155.659 26.4424C153.04 34.152 152.941 42.4797 155.378 50.2476C157.814 58.0155 162.662 64.8305 169.236 69.7287C169.597 69.0972 169.939 68.485 170.281 67.8728C162.737 62.1113 157.744 53.6916 156.346 44.3767C154.948 35.0618 157.254 25.5741 162.781 17.9001C168.308 10.2262 176.627 4.96116 185.997 3.20745C195.367 1.45374 205.06 3.34737 213.048 8.49184C221.036 13.6363 226.698 21.6327 228.849 30.8065C231.001 39.9804 229.474 49.6204 224.589 57.708C219.705 65.7956 211.841 71.7036 202.644 74.1949C193.447 76.6863 183.631 75.5678 175.251 71.0736C174.865 71.6617 174.484 72.2305 174.079 72.8235C179.85 75.969 186.336 77.616 192.928 77.6102C198.089 77.6102 203.199 76.6065 207.967 74.6564C212.735 72.7062 217.068 69.8479 220.717 66.2445C224.366 62.6411 227.261 58.3632 229.236 53.6552C231.211 48.9471 232.228 43.9011 232.228 38.8051C232.228 33.7092 231.211 28.6631 229.236 23.9551C227.261 19.247 224.366 14.9692 220.717 11.3658C217.068 7.76238 212.735 4.90402 207.967 2.95388C203.199 1.00374 198.089 1.78356e-05 192.928 1.79115e-05Z" fill="#fff"/>
<path d="M214.941 44.2717C213.599 43.621 203.191 38.651 198.133 38.651C197.717 38.6456 197.303 38.6893 196.898 38.7812C194.423 39.3886 183.267 55.3059 173.43 70.0229C173.025 70.611 172.644 71.1991 172.259 71.792C165.453 81.9778 159.473 91.2621 157.691 94.0001C159.312 91.1994 164.897 81.6403 170.96 70.9677C171.297 70.3603 171.639 69.7289 172.005 69.1167C180.685 53.7055 189.839 36.6361 189.253 34.2258C188.193 29.8873 177.102 21.8516 175.759 20.8633C177.102 21.5382 187.617 26.7781 192.694 26.7781C193.089 26.7844 193.482 26.7423 193.866 26.6528C198.26 25.6019 206.261 14.5485 207.223 13.2228C206.52 14.669 200.462 26.8842 201.545 31.2226C202.615 35.4743 213.599 43.3269 214.941 44.2717Z" fill="#222222"/>
<path d="M210.103 43.7267C210.103 43.7267 210.103 43.7267 210.103 43.7701C209.98 43.9237 209.865 44.0847 209.762 44.2522C209.806 44.2522 209.825 44.2907 209.869 44.2907C209.976 44.1164 210.069 43.9343 210.147 43.746L210.103 43.7267Z" fill="#fff"/>
<path d="M214.151 59.8321C213.467 59.514 208.004 56.8627 205.339 56.8627C205.117 56.8589 204.896 56.8799 204.68 56.9254C202.546 57.4508 194.867 69.0971 193.222 71.599C194.198 69.96 197.298 64.6526 197.786 63.8332C197.802 63.7938 197.825 63.7578 197.855 63.7271C198.299 62.8208 201.331 56.7807 200.784 54.6115C200.247 52.3603 194.53 48.2051 193.803 47.6844C194.486 48.0219 199.949 50.7599 202.59 50.7599C202.8 50.7665 203.01 50.7371 203.21 50.6732C205.192 50.1911 208.58 45.8526 209.757 44.233C209.861 44.0655 209.975 43.9045 210.099 43.7509C210.099 43.7509 210.099 43.7509 210.099 43.7075C210.02 43.8958 209.927 44.0779 209.82 44.2522C208.966 46.0021 206.579 51.0347 207.072 52.9918C207.648 55.243 213.428 59.326 214.151 59.8321Z" fill="#157EFF"/>
<path d="M180.299 44.2089C179.767 43.9583 175.222 41.7456 173.645 42.1457C172.215 42.5073 165.834 52.0615 163.881 55.0117C165.16 52.8858 168.407 47.5785 168.763 47.0096C169.017 46.5276 171.258 42.0831 170.872 40.5261C170.467 38.8389 165.902 35.6188 165.902 35.6188C165.902 35.6188 170.872 38.1881 172.561 37.7687C174.251 37.3493 177.126 33.2808 177.443 32.8422C177.443 32.8422 177.443 32.8422 177.443 32.9048C177.443 32.9675 177.443 32.8614 177.487 32.8614C177.209 33.3676 174.924 37.8314 175.329 39.4077C175.735 40.984 179.792 43.8667 180.299 44.2089Z" fill="#157EFF"/>
</g>
</svg>
